<svg xmlns="http://www.w3.org/2000/svg" width="800" height="280" viewBox="0 0 800 280">
  <defs>
    <clipPath id="rounded">
      <rect width="800" height="280" rx="20" ry="20"/>
    </clipPath>
    <linearGradient id="orangeGrad" x1="0" y1="0" x2="1" y2="1">
      <stop offset="0%" stop-color="#F5A623"/>
      <stop offset="100%" stop-color="#E8751A"/>
    </linearGradient>
    <radialGradient id="glowOrb" cx="0.82" cy="0.65" r="0.4">
      <stop offset="0%" stop-color="#F5A623" stop-opacity="0.22"/>
      <stop offset="100%" stop-color="#F5A623" stop-opacity="0"/>
    </radialGradient>
    <radialGradient id="glowOrb2" cx="0.12" cy="0.25" r="0.3">
      <stop offset="0%" stop-color="#E8751A" stop-opacity="0.1"/>
      <stop offset="100%" stop-color="#E8751A" stop-opacity="0"/>
    </radialGradient>
  </defs>
  <g clip-path="url(#rounded)">
    <rect width="800" height="280" fill="#1b1000"/>
    <rect width="800" height="280" fill="url(#glowOrb)"/>
    <rect width="800" height="280" fill="url(#glowOrb2)"/>
    <!-- CLAUDE CODE (Bangers font, converted to paths) -->
    <path fill="#FFFFFF" d="M243.73 120.16L243.73 120.16Q238.81 120.16 235.69 115.55Q232.57 110.95 232.57 102.92L232.57 102.92Q232.57 95.59 234.60 88.45Q236.63 81.31 240.29 75.62L240.29 75.62Q243.96 69.92 248.99 66.45Q254.02 62.98 260.11 62.98L260.11 62.98Q263.93 62.98 266.66 65.95Q269.39 68.91 269.39 73.90L269.39 73.90L269.39 74.84Q269.39 75.15 269.39 75.38Q269.39 75.62 269.31 75.93L269.31 75.93L259.09 78.66Q258.16 76.71 256.91 76.71L256.91 76.71Q255.04 76.71 252.97 79.75Q250.90 82.79 249.03 87.01L249.03 87.01Q247.78 89.81 246.81 92.78Q245.83 95.74 245.29 98.32Q244.74 100.89 244.74 102.53L244.74 102.53Q244.74 104.95 245.44 106.04L245.44 106.04Q245.99 107.05 247.16 107.05L247.16 107.05Q248.33 107.05 249.73 105.92Q251.14 104.79 252.35 103.07Q253.55 101.36 253.94 99.64L253.94 99.64L262.84 103.23Q259.01 111.97 253.75 116.06Q248.48 120.16 243.73 120.16ZM262.76 120.16L262.76 120.16Q263.62 113.99 264.59 107.75Q265.57 101.51 266.62 95.70Q267.67 89.89 268.61 85.21L268.61 85.21Q269.62 80.14 270.64 74.92Q271.65 69.69 272.74 64.39L272.74 64.39L286.39 62.59L282.34 80.22Q281.25 84.82 280.11 90.09Q278.98 95.35 278.05 100.27Q277.11 105.18 276.56 109.00L276.56 109.00Q278.51 108.85 280.74 108.81Q282.96 108.77 284.68 108.77L284.68 108.77Q284.75 110.56 284.99 112.55Q285.22 114.54 285.50 115.98Q285.77 117.43 285.77 117.58L285.77 117.58Q285.46 117.58 285.18 117.58Q284.91 117.58 284.60 117.50L284.60 117.50L283.35 117.50Q280.31 117.50 276.60 117.78Q272.90 118.05 269.27 118.64Q265.64 119.22 262.76 120.16ZM305.58 119.84L305.58 119.84Q305.74 118.52 305.89 117.27Q306.05 116.02 306.20 114.77L306.20 114.77L306.67 110.41Q306.75 109.31 306.83 108.38Q306.91 107.44 306.98 106.66L306.98 106.66L300.20 106.66L297.08 117.89Q295.36 118.13 293.02 118.40Q290.68 118.67 288.65 118.91L288.65 118.91Q287.41 119.06 286.20 119.22Q284.99 119.38 283.74 119.53L283.74 119.53L289.90 99.10Q290.99 95.43 292.40 90.75Q293.80 86.07 295.25 81.16Q296.69 76.24 297.98 71.91Q299.26 67.58 300.04 64.62L300.04 64.62Q305.35 64.23 310.85 63.68Q316.34 63.14 321.57 62.20L321.57 62.20Q321.18 66.57 320.83 72.07Q320.48 77.57 320.21 83.42Q319.93 89.27 319.62 94.96L319.62 94.96Q319.46 100.34 319.23 106.08Q319.00 111.81 318.76 117.82L318.76 117.82Q317.59 117.97 316.42 118.13Q315.25 118.28 314.08 118.44L314.08 118.44Q312.13 118.75 309.79 119.14Q307.45 119.53 305.58 119.84ZM306.91 79.28L302.07 98.86Q302.54 98.86 303.83 98.78Q305.11 98.71 306.28 98.63Q307.45 98.55 307.69 98.55L307.69 98.55Q307.69 97.54 308.00 94.42Q308.31 91.30 308.62 87.86L308.62 87.86Q308.78 85.84 308.97 83.69Q309.17 81.55 309.40 79.28L309.40 79.28L309.87 72.50L308.70 72.58L306.91 79.28ZM331.55 121.40L331.55 121.40Q329.21 121.40 326.80 120.39Q324.38 119.38 322.74 117.27Q321.10 115.16 321.10 111.89L321.10 111.89L321.10 111.26Q321.10 110.87 321.18 110.64L321.18 110.64Q321.41 108.61 321.84 105.34Q322.27 102.06 322.90 98.20Q323.52 94.34 324.18 90.52Q324.85 86.69 325.39 83.57L325.39 83.57Q326.56 77.33 327.26 73.51Q327.97 69.69 328.40 67.62Q328.82 65.56 329.06 64.54L329.06 64.54L341.93 63.29Q340.91 68.05 340.02 72.30Q339.12 76.55 338.34 80.38L338.34 80.38L334.75 97.61Q334.28 99.56 334.05 100.89L334.05 100.89Q333.74 102.14 333.39 104.05Q333.04 105.96 333.04 107.52L333.04 107.52Q333.04 108.77 333.66 109.59Q334.28 110.41 335.22 110.41L335.22 110.41Q336.55 110.41 337.40 109.39Q338.26 108.38 338.81 106.90Q339.35 105.41 339.67 103.89Q339.98 102.37 340.21 101.44L340.21 101.44Q340.99 97.85 341.66 94.45Q342.32 91.06 343.06 87.24Q343.80 83.42 344.74 78.43L344.74 78.43Q345.36 74.99 346.02 71.44Q346.69 67.90 347.31 64.23L347.31 64.23L359.17 63.45L356.44 78.50Q355.89 81.39 355.23 84.98Q354.56 88.57 353.78 92.23Q353.00 95.90 352.34 99.17Q351.68 102.45 351.13 104.79L351.13 104.79Q349.57 111.19 346.30 114.81Q343.02 118.44 339.08 119.92Q335.14 121.40 331.55 121.40ZM356.05 120.39L356.05 120.39Q354.95 120.39 353.86 120.27Q352.77 120.16 351.68 120L351.68 120L355.81 99.02Q356.59 94.73 357.49 89.93Q358.39 85.13 359.24 80.41Q360.10 75.70 360.77 71.64Q361.43 67.58 361.82 64.78L361.82 64.78Q365.17 64.15 368.60 63.61Q372.04 63.06 375.62 63.06L375.62 63.06Q381.40 63.06 384.75 65.44Q388.10 67.82 389.59 71.68Q391.07 75.54 391.07 80.14L391.07 80.14Q391.07 84.28 389.90 88.84Q388.73 93.40 386.58 97.89Q384.44 102.37 381.47 106.35L381.47 106.35Q376.87 112.51 370.28 116.45Q363.69 120.39 356.05 120.39ZM365.33 110.56L365.33 110.56Q368.06 108.77 370.52 105.10Q372.97 101.44 375.16 96.29L375.16 96.29Q377.11 91.53 378.20 87.28Q379.29 83.03 379.29 80.22L379.29 80.22Q379.29 77.33 377.69 75.70Q376.09 74.06 372.66 74.06L372.66 74.06Q371.41 80.77 370.13 86.46Q368.84 92.15 367.63 97.93Q366.42 103.70 365.33 110.56ZM411.58 116.18L386.39 120.08L396.61 64.62L421.25 62.51Q420.71 64.23 420.32 66.02L420.32 66.02Q419.93 67.51 419.58 69.10Q419.23 70.70 418.99 71.95L418.99 71.95Q417.98 72.03 416.11 72.07Q414.24 72.11 412.28 72.15Q410.33 72.19 408.93 72.19Q407.53 72.19 407.45 72.19L407.45 72.19L404.72 86.15L409.24 85.91Q410.10 85.84 411.00 85.84Q411.89 85.84 412.75 85.84L412.75 85.84Q413.61 85.84 414.31 85.84Q415.01 85.84 415.40 85.76L415.40 85.76Q415.25 86.85 415.13 87.90Q415.01 88.96 414.86 90.05L414.86 90.05L414.16 94.34Q413.77 94.42 413.14 94.42Q412.52 94.42 411.66 94.42L411.66 94.42Q410.80 94.49 409.87 94.49Q408.93 94.49 408.07 94.57L408.07 94.57Q407.06 94.65 405.97 94.65Q404.88 94.65 403.63 94.73L403.63 94.73L400.97 109.08L412.36 107.29L411.58 116.18ZM441.77 120.16L441.77 120.16Q436.85 120.16 433.73 115.55Q430.61 110.95 430.61 102.92L430.61 102.92Q430.61 95.59 432.64 88.45Q434.67 81.31 438.34 75.62L438.34 75.62Q442.00 69.92 447.03 66.45Q452.06 62.98 458.15 62.98L458.15 62.98Q461.97 62.98 464.70 65.95Q467.43 68.91 467.43 73.90L467.43 73.90L467.43 74.84Q467.43 75.15 467.43 75.38Q467.43 75.62 467.35 75.93L467.35 75.93L457.13 78.66Q456.20 76.71 454.95 76.71L454.95 76.71Q453.08 76.71 451.01 79.75Q448.94 82.79 447.07 87.01L447.07 87.01Q445.82 89.81 444.85 92.78Q443.88 95.74 443.33 98.32Q442.78 100.89 442.78 102.53L442.78 102.53Q442.78 104.95 443.48 106.04L443.48 106.04Q444.03 107.05 445.20 107.05L445.20 107.05Q446.37 107.05 447.77 105.92Q449.18 104.79 450.39 103.07Q451.60 101.36 451.99 99.64L451.99 99.64L460.88 103.23Q457.06 111.97 451.79 116.06Q446.53 120.16 441.77 120.16ZM473.20 120.31L473.20 120.31Q468.06 120.31 464.78 116.33Q461.50 112.36 461.50 104.32L461.50 104.32Q461.50 99.88 462.60 94.96Q463.69 90.05 465.64 85.29Q467.59 80.53 470.16 76.48L470.16 76.48Q474.30 69.92 479.68 65.79Q485.06 61.66 490.99 61.66L490.99 61.66Q495.67 61.66 498.20 64.03Q500.74 66.41 501.75 70.12Q502.77 73.82 502.77 77.80L502.77 77.80Q502.77 87.08 499.92 95.08Q497.07 103.07 492.55 108.61L492.55 108.61Q488.02 114.31 482.91 117.31Q477.81 120.31 473.20 120.31ZM477.42 107.44L477.42 107.44Q480.93 107.44 483.62 105.10Q486.31 102.76 488.18 99.14Q490.05 95.51 490.99 91.53Q491.92 87.55 491.92 84.35L491.92 84.35Q491.92 83.11 491.69 81.66Q491.46 80.22 490.68 79.13Q489.90 78.04 488.26 78.04L488.26 78.04Q484.67 78.04 481.78 80.65Q478.90 83.26 476.95 87.24L476.95 87.24Q475.00 91.30 474.06 95.20Q473.13 99.10 473.13 102.29L473.13 102.29Q473.13 103.93 474.30 105.69Q475.47 107.44 477.42 107.44ZM502.22 120.39L502.22 120.39Q501.13 120.39 500.04 120.27Q498.94 120.16 497.85 120L497.85 120L501.99 99.02Q502.77 94.73 503.66 89.93Q504.56 85.13 505.42 80.41Q506.28 75.70 506.94 71.64Q507.60 67.58 507.99 64.78L507.99 64.78Q511.35 64.15 514.78 63.61Q518.21 63.06 521.80 63.06L521.80 63.06Q527.57 63.06 530.92 65.44Q534.28 67.82 535.76 71.68Q537.24 75.54 537.24 80.14L537.24 80.14Q537.24 84.28 536.07 88.84Q534.90 93.40 532.76 97.89Q530.61 102.37 527.65 106.35L527.65 106.35Q523.05 112.51 516.45 116.45Q509.86 120.39 502.22 120.39ZM511.50 110.56L511.50 110.56Q514.23 108.77 516.69 105.10Q519.15 101.44 521.33 96.29L521.33 96.29Q523.28 91.53 524.37 87.28Q525.46 83.03 525.46 80.22L525.46 80.22Q525.46 77.33 523.86 75.70Q522.27 74.06 518.83 74.06L518.83 74.06Q517.59 80.77 516.30 86.46Q515.01 92.15 513.80 97.93Q512.59 103.70 511.50 110.56ZM557.75 116.18L532.56 120.08L542.78 64.62L567.43 62.51Q566.88 64.23 566.49 66.02L566.49 66.02Q566.10 67.51 565.75 69.10Q565.40 70.70 565.16 71.95L565.16 71.95Q564.15 72.03 562.28 72.07Q560.41 72.11 558.46 72.15Q556.51 72.19 555.10 72.19Q553.70 72.19 553.62 72.19L553.62 72.19L550.89 86.15L555.41 85.91Q556.27 85.84 557.17 85.84Q558.07 85.84 558.92 85.84L558.92 85.84Q559.78 85.84 560.49 85.84Q561.19 85.84 561.58 85.76L561.58 85.76Q561.42 86.85 561.30 87.90Q561.19 88.96 561.03 90.05L561.03 90.05L560.33 94.34Q559.94 94.42 559.32 94.42Q558.69 94.42 557.83 94.42L557.83 94.42Q556.98 94.49 556.04 94.49Q555.10 94.49 554.25 94.57L554.25 94.57Q553.23 94.65 552.14 94.65Q551.05 94.65 549.80 94.73L549.80 94.73L547.15 109.08L558.53 107.29L557.75 116.18Z"/>
    <!-- IN YOUR CODE (Bangers font, converted to paths, with italic skew) -->
    <g transform="skewX(-8)" fill="url(#orangeGrad)">
      <path d="M222.12 214.92L222.12 214.92Q223.45 210.32 224.73 204.47Q226.02 198.62 227.23 192.50Q228.44 186.37 229.53 180.91L229.53 180.91Q230.54 175.92 231.48 170.77Q232.42 165.63 233.35 160.40L233.35 160.40L245.52 158.45Q244.51 163.68 243.49 168.78Q242.48 173.89 241.46 178.96L241.46 178.96Q240.37 184.42 239.20 190.51Q238.03 196.59 236.94 202.48Q235.85 208.37 234.91 213.44L234.91 213.44Q233.51 213.44 231.40 213.63Q229.30 213.83 227.19 214.10Q225.08 214.38 223.64 214.61Q222.20 214.84 222.12 214.92ZM250.04 212.74L238.66 215.39Q239.75 209.85 240.80 204.51Q241.85 199.17 242.87 193.94L242.87 193.94Q243.96 187.86 245.09 181.62Q246.22 175.38 247.20 169.45Q248.17 163.52 248.72 158.45L248.72 158.45Q249.97 158.37 251.14 158.29Q252.31 158.22 253.40 158.14L253.40 158.14Q254.41 158.06 255.47 157.98Q256.52 157.90 257.53 157.83L257.53 157.83L261.28 157.59Q261.82 160.56 262.25 163.44Q262.68 166.33 263.07 169.06L263.07 169.06Q263.38 170.93 263.81 173.43Q264.24 175.92 264.67 178.53Q265.10 181.15 265.53 183.41Q265.96 185.67 266.27 187.08L266.27 187.08Q267.05 182.94 267.56 180.25Q268.06 177.56 268.57 175.03Q269.08 172.49 269.78 169.06L269.78 169.06L272.20 157.67L281.71 156.50Q280.39 162.35 279.22 167.89Q278.05 173.43 277.03 178.65L277.03 178.65Q275.08 188.09 273.60 196.32Q272.12 204.55 271.34 210.71L271.34 210.71L258.62 213.67L257.45 201.66Q257.30 199.87 256.99 197.33Q256.67 194.80 256.36 192.11Q256.05 189.42 255.74 187.19Q255.43 184.97 255.27 183.88L255.27 183.88Q254.49 188.48 253.79 192.81Q253.09 197.14 252.23 201.19L252.23 201.19Q251.68 203.92 251.18 206.85Q250.67 209.77 250.04 212.74L250.04 212.74ZM308.08 212.19L294.74 213.83L298.33 198.15Q298.33 192.61 298.05 186.80Q297.78 180.99 297.39 175.22L297.39 175.22Q297.08 169.45 296.81 165.94Q296.53 162.43 296.53 162.43L296.53 162.43L309.25 157.59L309.25 167.11Q309.25 171.63 309.21 175.26Q309.17 178.89 309.17 181.62L309.17 181.62Q310.18 178.96 311.63 175.06Q313.07 171.16 314.32 167.50L314.32 167.50Q315.10 165.31 315.84 163.09Q316.58 160.87 317.36 158.45L317.36 158.45L329.45 161.18Q326.09 167.81 322.90 174.52L322.90 174.52Q321.02 178.65 318.80 183.22Q316.58 187.78 314.67 191.72Q312.76 195.66 311.66 198.00L311.66 198.00Q311.27 200.02 310.69 202.44Q310.10 204.86 309.56 207.04L309.56 207.04Q309.25 208.29 308.86 209.58Q308.47 210.87 308.08 212.19L308.08 212.19ZM331.16 215.31L331.16 215.31Q326.02 215.31 322.74 211.33Q319.46 207.36 319.46 199.32L319.46 199.32Q319.46 194.88 320.56 189.96Q321.65 185.05 323.60 180.29Q325.55 175.53 328.12 171.48L328.12 171.48Q332.26 164.92 337.64 160.79Q343.02 156.66 348.95 156.66L348.95 156.66Q353.63 156.66 356.16 159.03Q358.70 161.41 359.71 165.12Q360.73 168.82 360.73 172.80L360.73 172.80Q360.73 182.08 357.88 190.08Q355.03 198.07 350.51 203.61L350.51 203.61Q345.98 209.31 340.88 212.31Q335.77 215.31 331.16 215.31ZM335.38 202.44L335.38 202.44Q338.89 202.44 341.58 200.10Q344.27 197.76 346.14 194.13Q348.01 190.51 348.95 186.53Q349.88 182.55 349.88 179.35L349.88 179.35Q349.88 178.11 349.65 176.66Q349.42 175.22 348.64 174.13Q347.86 173.04 346.22 173.04L346.22 173.04Q342.63 173.04 339.74 175.65Q336.86 178.26 334.91 182.24L334.91 182.24Q332.96 186.30 332.02 190.20Q331.09 194.10 331.09 197.29L331.09 197.29Q331.09 198.93 332.26 200.69Q333.43 202.44 335.38 202.44ZM368.37 216.40L368.37 216.40Q366.03 216.40 363.61 215.39Q361.19 214.38 359.56 212.27Q357.92 210.16 357.92 206.89L357.92 206.89L357.92 206.26Q357.92 205.87 358.00 205.64L358.00 205.64Q358.23 203.61 358.66 200.34Q359.09 197.06 359.71 193.20Q360.34 189.34 361 185.52Q361.66 181.69 362.21 178.57L362.21 178.57Q363.38 172.33 364.08 168.51Q364.78 164.69 365.21 162.62Q365.64 160.56 365.88 159.54L365.88 159.54L378.75 158.29Q377.73 163.05 376.83 167.30Q375.94 171.55 375.16 175.38L375.16 175.38L371.57 192.61Q371.10 194.56 370.87 195.89L370.87 195.89Q370.55 197.14 370.20 199.05Q369.85 200.96 369.85 202.52L369.85 202.52Q369.85 203.77 370.48 204.59Q371.10 205.41 372.04 205.41L372.04 205.41Q373.36 205.41 374.22 204.39Q375.08 203.38 375.63 201.90Q376.17 200.41 376.48 198.89Q376.79 197.37 377.03 196.44L377.03 196.44Q377.81 192.85 378.47 189.45Q379.13 186.06 379.88 182.24Q380.62 178.42 381.55 173.43L381.55 173.43Q382.18 169.99 382.84 166.44Q383.50 162.90 384.13 159.23L384.13 159.23L395.98 158.45L393.25 173.50Q392.71 176.39 392.04 179.98Q391.38 183.57 390.60 187.23Q389.82 190.90 389.16 194.17Q388.50 197.45 387.95 199.79L387.95 199.79Q386.39 206.19 383.11 209.81Q379.84 213.44 375.90 214.92Q371.96 216.40 368.37 216.40ZM401.13 211.80L388.50 215.08L392.55 194.80Q393.49 189.18 394.58 183.25Q395.67 177.33 396.65 171.55Q397.62 165.78 398.17 160.71L398.17 160.71Q402.61 159.31 407.76 158.65Q412.91 157.98 417.98 157.98L417.98 157.98Q423.91 157.98 426.05 160.56Q428.20 163.13 428.20 167.50L428.20 167.50Q428.20 171.48 426.32 175.49Q424.45 179.51 421.45 182.75Q418.45 185.98 414.86 187.86L414.86 187.86Q416.26 190.98 417.86 194.68Q419.46 198.39 420.87 201.74L420.87 201.74Q421.64 203.69 422.46 205.64Q423.28 207.59 424.06 209.54L424.06 209.54L411.97 213.75Q411.19 211.02 410.49 208.53Q409.79 206.03 409.16 203.61L409.16 203.61Q408.38 200.73 407.68 198.03Q406.98 195.34 406.47 193.24Q405.97 191.13 405.89 190.27L405.89 190.27L404.88 190.59Q404.41 193.08 403.74 196.67Q403.08 200.26 402.53 203.61L402.53 203.61L401.13 211.80ZM409.32 168.82L406.82 181.23Q408.23 181.07 410.30 180.02Q412.36 178.96 414.43 177.40Q416.50 175.84 417.90 174.21Q419.31 172.57 419.31 171.32L419.31 171.32Q419.31 169.76 417.47 169.25Q415.64 168.75 412.68 168.75L412.68 168.75L410.96 168.75Q410.49 168.82 410.10 168.82Q409.71 168.82 409.32 168.82L409.32 168.82ZM452.22 215.16L452.22 215.16Q447.31 215.16 444.19 210.55Q441.07 205.95 441.07 197.92L441.07 197.92Q441.07 190.59 443.09 183.45Q445.12 176.31 448.79 170.62L448.79 170.62Q452.45 164.92 457.49 161.45Q462.52 157.98 468.60 157.98L468.60 157.98Q472.42 157.98 475.15 160.95Q477.88 163.91 477.88 168.90L477.88 168.90L477.88 169.84Q477.88 170.15 477.88 170.38Q477.88 170.62 477.80 170.93L477.80 170.93L467.59 173.66Q466.65 171.71 465.40 171.71L465.40 171.71Q463.53 171.71 461.46 174.75Q459.40 177.79 457.52 182.01L457.52 182.01Q456.28 184.81 455.30 187.78Q454.33 190.74 453.78 193.32Q453.23 195.89 453.23 197.53L453.23 197.53Q453.23 199.95 453.94 201.04L453.94 201.04Q454.48 202.05 455.65 202.05L455.65 202.05Q456.82 202.05 458.23 200.92Q459.63 199.79 460.84 198.07Q462.05 196.36 462.44 194.64L462.44 194.64L471.33 198.23Q467.51 206.97 462.24 211.06Q456.98 215.16 452.22 215.16ZM483.66 215.31L483.66 215.31Q478.51 215.31 475.23 211.33Q471.96 207.36 471.96 199.32L471.96 199.32Q471.96 194.88 473.05 189.96Q474.14 185.05 476.09 180.29Q478.04 175.53 480.61 171.48L480.61 171.48Q484.75 164.92 490.13 160.79Q495.51 156.66 501.44 156.66L501.44 156.66Q506.12 156.66 508.65 159.03Q511.19 161.41 512.20 165.12Q513.22 168.82 513.22 172.80L513.22 172.80Q513.22 182.08 510.37 190.08Q507.52 198.07 503.00 203.61L503.00 203.61Q498.48 209.31 493.37 212.31Q488.26 215.31 483.66 215.31ZM487.87 202.44L487.87 202.44Q491.38 202.44 494.07 200.10Q496.76 197.76 498.63 194.13Q500.50 190.51 501.44 186.53Q502.38 182.55 502.38 179.35L502.38 179.35Q502.38 178.11 502.14 176.66Q501.91 175.22 501.13 174.13Q500.35 173.04 498.71 173.04L498.71 173.04Q495.12 173.04 492.24 175.65Q489.35 178.26 487.40 182.24L487.40 182.24Q485.45 186.30 484.51 190.20Q483.58 194.10 483.58 197.29L483.58 197.29Q483.58 198.93 484.75 200.69Q485.92 202.44 487.87 202.44ZM512.67 215.39L512.67 215.39Q511.58 215.39 510.49 215.27Q509.40 215.16 508.30 215L508.30 215L512.44 194.02Q513.22 189.73 514.11 184.93Q515.01 180.13 515.87 175.41Q516.73 170.70 517.39 166.64Q518.05 162.58 518.44 159.78L518.44 159.78Q521.80 159.15 525.23 158.61Q528.66 158.06 532.25 158.06L532.25 158.06Q538.02 158.06 541.38 160.44Q544.73 162.82 546.21 166.68Q547.69 170.54 547.69 175.14L547.69 175.14Q547.69 179.28 546.52 183.84Q545.35 188.40 543.21 192.89Q541.06 197.37 538.10 201.35L538.10 201.35Q533.50 207.51 526.91 211.45Q520.32 215.39 512.67 215.39ZM521.95 205.56L521.95 205.56Q524.68 203.77 527.14 200.10Q529.60 196.44 531.78 191.29L531.78 191.29Q533.73 186.53 534.82 182.28Q535.92 178.03 535.92 175.22L535.92 175.22Q535.92 172.33 534.32 170.70Q532.72 169.06 529.29 169.06L529.29 169.06Q528.04 175.77 526.75 181.46Q525.46 187.15 524.25 192.93Q523.05 198.70 521.95 205.56ZM568.21 211.18L543.01 215.08L553.23 159.62L577.88 157.51Q577.33 159.23 576.94 161.02L576.94 161.02Q576.55 162.51 576.20 164.10Q575.85 165.70 575.62 166.95L575.62 166.95Q574.60 167.03 572.73 167.07Q570.86 167.11 568.91 167.15Q566.96 167.19 565.56 167.19Q564.15 167.19 564.07 167.19L564.07 167.19L561.34 181.15L565.87 180.91Q566.73 180.84 567.62 180.84Q568.52 180.84 569.38 180.84L569.38 180.84Q570.24 180.84 570.94 180.84Q571.64 180.84 572.03 180.76L572.03 180.76Q571.87 181.85 571.76 182.90Q571.64 183.96 571.48 185.05L571.48 185.05L570.78 189.34Q570.39 189.42 569.77 189.42Q569.14 189.42 568.28 189.42L568.28 189.42Q567.43 189.49 566.49 189.49Q565.56 189.49 564.70 189.57L564.70 189.57Q563.68 189.65 562.59 189.65Q561.50 189.65 560.25 189.73L560.25 189.73L557.60 204.08L568.99 202.29L568.21 211.18Z"/>
    </g>
  </g>
</svg>
